<?xml version="1.0" encoding="utf-8"?>
<!-- Generator: Adobe Illustrator 16.0.0, SVG Export Plug-In . SVG Version: 6.00 Build 0)  -->
<!DOCTYPE svg PUBLIC "-//W3C//DTD SVG 1.1//EN" "http://www.w3.org/Graphics/SVG/1.1/DTD/svg11.dtd">
<svg version="1.1" id="Capa_1" xmlns="http://www.w3.org/2000/svg" xmlns:xlink="http://www.w3.org/1999/xlink" x="0px" y="0px"
	 width="1024px" height="792px" viewBox="0 0 1024 792" enable-background="new 0 0 1024 792" xml:space="preserve">
<g>
	<g>
		<rect x="393.2" y="264" fill="#A0A0A0" width="26.4" height="26.4"/>
	</g>
</g>
<g>
	<g>
		<rect x="393.2" y="316.8" fill="#A0A0A0" width="26.4" height="26.4"/>
	</g>
</g>
<g>
	<g>
		<rect x="393.2" y="369.6" fill="#A0A0A0" width="26.4" height="26.4"/>
	</g>
</g>
<g>
	<g>
		<rect x="393.2" y="422.4" fill="#A0A0A0" width="26.4" height="26.399"/>
	</g>
</g>
<g>
	<g>
		<rect x="446" y="264" fill="#A0A0A0" width="26.4" height="26.4"/>
	</g>
</g>
<g>
	<g>
		<rect x="446" y="316.8" fill="#A0A0A0" width="26.4" height="26.4"/>
	</g>
</g>
<g>
	<g>
		<rect x="446" y="369.6" fill="#A0A0A0" width="26.4" height="26.4"/>
	</g>
</g>
<g>
	<g>
		<rect x="446" y="422.4" fill="#A0A0A0" width="26.4" height="26.399"/>
	</g>
</g>
<g>
	<g>
		<rect x="498.8" y="264" fill="#A0A0A0" width="26.4" height="26.4"/>
	</g>
</g>
<g>
	<g>
		<rect x="498.8" y="316.8" fill="#A0A0A0" width="26.4" height="26.4"/>
	</g>
</g>
<g>
	<g>
		<rect x="498.8" y="369.6" fill="#A0A0A0" width="26.4" height="26.4"/>
	</g>
</g>
<g>
	<g>
		<rect x="498.8" y="422.4" fill="#A0A0A0" width="26.4" height="26.399"/>
	</g>
</g>
<g>
	<g>
		<rect x="551.6" y="264" fill="#A0A0A0" width="26.4" height="26.4"/>
	</g>
</g>
<g>
	<g>
		<rect x="446" y="211.2" fill="#A0A0A0" width="26.4" height="26.4"/>
	</g>
</g>
<g>
	<g>
		<rect x="498.8" y="211.2" fill="#A0A0A0" width="26.4" height="26.4"/>
	</g>
</g>
<g>
	<g>
		<rect x="551.6" y="211.2" fill="#A0A0A0" width="26.4" height="26.4"/>
	</g>
</g>
<g>
	<g>
		<rect x="551.6" y="316.8" fill="#A0A0A0" width="26.4" height="26.4"/>
	</g>
</g>
<g>
	<g>
		<rect x="551.6" y="369.6" fill="#A0A0A0" width="26.4" height="26.4"/>
	</g>
</g>
<g>
	<g>
		<rect x="551.6" y="422.4" fill="#A0A0A0" width="26.4" height="26.399"/>
	</g>
</g>
<g>
	<g>
		<rect x="604.4" y="264" fill="#A0A0A0" width="26.399" height="26.4"/>
	</g>
</g>
<g>
	<g>
		<rect x="604.4" y="316.8" fill="#A0A0A0" width="26.399" height="26.4"/>
	</g>
</g>
<g>
	<g>
		<rect x="604.4" y="369.6" fill="#A0A0A0" width="26.399" height="26.4"/>
	</g>
</g>
<g>
	<g>
		<rect x="604.4" y="422.4" fill="#A0A0A0" width="26.399" height="26.399"/>
	</g>
</g>
<g>
	<g>
		<path fill="#A0A0A0" d="M894.814,198c-0.005,0-0.01,0-0.015,0h-198V13.2c0.005-7.287-5.898-13.195-13.185-13.2
			c-0.005,0-0.011,0-0.016,0H340.4c-7.286-0.005-13.195,5.899-13.2,13.185c0,0.005,0,0.01,0,0.015V198h-198
			c-7.287-0.005-13.195,5.899-13.2,13.185c0,0.005,0,0.01,0,0.015v475.2c-0.005,7.286,5.899,13.194,13.185,13.199
			c0.005,0,0.01,0,0.015,0h27.593c-0.766,4.359-1.165,8.775-1.193,13.2v66c-0.005,7.286,5.898,13.195,13.185,13.2
			c0.005,0,0.01,0,0.015,0h686.4c7.286,0.005,13.195-5.898,13.2-13.186c0-0.005,0-0.01,0-0.015v-66
			c-0.026-4.425-0.426-8.841-1.193-13.2H894.8c7.286,0.005,13.195-5.898,13.2-13.185c0-0.005,0-0.01,0-0.015V211.2
			C908.005,203.914,902.102,198.005,894.814,198z M683.6,567.6c0,14.581-11.818,26.4-26.399,26.4s-26.4-11.819-26.4-26.4
			s11.819-26.399,26.4-26.399C671.772,541.218,683.582,553.027,683.6,567.6z M366.8,541.2c14.581,0,26.4,11.818,26.4,26.399
			S381.381,594,366.8,594s-26.4-11.819-26.4-26.4C340.418,553.027,352.227,541.218,366.8,541.2z M287.6,765.6H182v-52.8
			c0-29.16,23.64-52.8,52.8-52.8c29.161,0,52.8,23.64,52.8,52.8V765.6z M208.4,607.2c0-14.581,11.819-26.4,26.4-26.4
			s26.4,11.819,26.4,26.4S249.381,633.6,234.8,633.6C220.227,633.582,208.418,621.772,208.4,607.2z M289.6,655.751
			c-4.978-4.802-10.56-8.933-16.605-12.291c20.133-21.093,19.356-54.516-1.737-74.65s-54.516-19.356-74.651,1.737
			c-19.475,20.402-19.475,52.51,0,72.912c-12.6,6.992-23.067,17.271-30.291,29.739H142.4V224.4h184.8v308.642
			c-18.127,20.34-17.515,51.215,1.406,70.818C308.806,614.812,294.617,633.688,289.6,655.751z M419.6,765.6H314V673.2
			c0-29.161,23.64-52.8,52.8-52.8c29.161,0,52.8,23.639,52.8,52.8V765.6z M578,765.6H446V673.2c0-36.45,29.55-66,66-66
			s66,29.55,66,66V765.6z M472.4,541.2c0-21.871,17.729-39.601,39.6-39.601s39.6,17.729,39.6,39.601c0,21.87-17.729,39.6-39.6,39.6
			C490.139,580.777,472.423,563.061,472.4,541.2z M592.392,627.816c-8.839-15.582-21.99-28.279-37.873-36.563
			c27.88-23.483,31.444-65.121,7.963-93.001c-23.482-27.88-65.12-31.443-93-7.963c-27.88,23.483-31.444,65.121-7.963,93.001
			c2.422,2.876,5.085,5.539,7.963,7.963c-15.884,8.284-29.034,20.981-37.873,36.563c-6.939-9.899-16.041-18.092-26.614-23.956
			c20.237-20.702,19.861-53.893-0.843-74.13c-13.33-13.031-32.578-18.001-50.551-13.056V26.4h316.8v490.275
			c-4.302-1.187-8.739-1.817-13.2-1.875c-29.083-0.077-52.723,23.437-52.8,52.521c-0.037,13.609,5.199,26.705,14.605,36.539
			C608.433,609.725,599.331,617.917,592.392,627.816z M710,712.8v52.8H604.4V673.2c0-29.161,23.639-52.8,52.8-52.8
			c29.16,0,52.8,23.639,52.8,52.8V712.8z M842,765.6H736.4v-52.8c0-29.16,23.639-52.8,52.8-52.8c29.16,0,52.8,23.64,52.8,52.8V765.6
			z M762.8,607.2c0-14.581,11.819-26.4,26.4-26.4s26.399,11.819,26.399,26.4S803.781,633.6,789.2,633.6
			C774.627,633.582,762.818,621.772,762.8,607.2z M881.6,673.2h-23.915c-7.224-12.47-17.691-22.747-30.29-29.74
			c20.133-21.093,19.355-54.516-1.738-74.65c-21.093-20.134-54.516-19.356-74.65,1.737c-19.475,20.402-19.475,52.51,0,72.912
			c-6.046,3.357-11.629,7.489-16.605,12.291c-5.017-22.064-19.206-40.94-39.006-51.892c18.92-19.604,19.534-50.479,1.407-70.817
			V224.4h184.8v448.8H881.6z"/>
	</g>
</g>
<g>
	<g>
		<rect x="736.4" y="303.6" fill="#A0A0A0" width="26.399" height="211.2"/>
	</g>
</g>
<g>
	<g>
		<rect x="815.6" y="303.6" fill="#A0A0A0" width="26.4" height="211.2"/>
	</g>
</g>
<g>
	<g>
		<rect x="182" y="303.6" fill="#A0A0A0" width="26.4" height="211.2"/>
	</g>
</g>
<g>
	<g>
		<rect x="261.2" y="303.6" fill="#A0A0A0" width="26.4" height="211.2"/>
	</g>
</g>
<g>
	<g>
		<path fill="#A0A0A0" d="M591.215,52.8c-0.005,0-0.01,0-0.015,0H432.8c-7.286-0.005-13.195,5.899-13.2,13.186
			c0,0.005,0,0.01,0,0.015v105.6c-0.005,7.286,5.899,13.195,13.185,13.2c0.005,0,0.01,0,0.015,0h158.4
			c7.286,0.005,13.194-5.898,13.2-13.185c0-0.005,0-0.01,0-0.015V66C604.405,58.714,598.501,52.805,591.215,52.8z M578,158.4H446
			V79.2h132V158.4z"/>
	</g>
</g>
</svg>
