<?xml version="1.0" encoding="utf-8"?>
<!-- Generator: Adobe Illustrator 16.0.0, SVG Export Plug-In . SVG Version: 6.00 Build 0)  -->
<!DOCTYPE svg PUBLIC "-//W3C//DTD SVG 1.1//EN" "http://www.w3.org/Graphics/SVG/1.1/DTD/svg11.dtd">
<svg version="1.1" id="Layer_1" xmlns="http://www.w3.org/2000/svg" xmlns:xlink="http://www.w3.org/1999/xlink" x="0px" y="0px"
	 width="1024px" height="792px" viewBox="0 0 1024 792" enable-background="new 0 0 1024 792" xml:space="preserve">
<g>
	<path fill="#A0A0A0" d="M815.188,107.949V0H581.609C553.917,0,529.021,12.194,512,31.487C494.979,12.194,470.083,0,442.391,0
		H208.812v107.949H116V792l127.176-127.176H908V107.949H815.188z M488.797,445.276c-13.662-7.922-29.506-12.483-46.406-12.483
		H255.219v-46.406h187.172c25.59,0,46.406,20.822,46.406,46.406V445.276z M255.219,479.199h187.172
		c25.59,0,46.406,20.822,46.406,46.406H255.219V479.199z M768.781,432.793H581.609c-16.9,0-32.744,4.562-46.406,12.483v-12.483
		c0-25.584,20.816-46.406,46.406-46.406h187.172V432.793z M768.781,479.199v46.406H535.203c0-25.584,20.816-46.406,46.406-46.406
		H768.781z M581.609,46.406h187.172V339.98H581.609c-16.9,0-32.744,4.562-46.406,12.483V92.812
		C535.203,67.223,556.02,46.406,581.609,46.406z M442.391,46.406c25.59,0,46.406,20.816,46.406,46.406v259.651
		c-13.662-7.922-29.506-12.483-46.406-12.483H255.219V46.406H442.391z M861.594,618.418H223.949l-61.542,61.549V154.355h46.406
		v417.657h606.375V154.355h46.406V618.418z"/>
	<path fill="#A0A0A0" d="M116,795c-0.387,0-0.776-0.074-1.147-0.229C113.731,794.308,113,793.213,113,792V107.949
		c0-1.657,1.343-3,3-3h89.812V0c0-1.657,1.343-3,3-3h233.578C468.724-3,493.906,7.909,512,27.04C530.095,7.909,555.276-3,581.609-3
		h233.578c1.657,0,3,1.343,3,3v104.949H908c1.657,0,3,1.343,3,3v556.875c0,1.657-1.343,3-3,3H244.419L118.121,794.121
		C117.547,794.695,116.78,795,116,795z M119,110.949v673.809l122.055-122.055c0.563-0.562,1.326-0.879,2.122-0.879H905V110.949
		h-89.812c-1.657,0-3-1.343-3-3V3H581.609c-25.724,0-50.274,11.106-67.359,30.472c-0.57,0.646-1.39,1.015-2.25,1.015
		c-0.861,0-1.68-0.37-2.25-1.015C492.666,14.106,468.114,3,442.391,3H211.812v104.949c0,1.657-1.343,3-3,3H119z M162.406,682.967
		c-0.387,0-0.776-0.074-1.147-0.229c-1.121-0.464-1.852-1.558-1.852-2.771V154.355c0-1.657,1.343-3,3-3h46.406c1.657,0,3,1.343,3,3
		v414.657h600.375V154.355c0-1.657,1.343-3,3-3h46.406c1.657,0,3,1.343,3,3v464.063c0,1.657-1.343,3-3,3H225.191l-60.664,60.67
		C163.954,682.662,163.186,682.967,162.406,682.967z M165.406,157.355v515.369l56.421-56.427c0.563-0.562,1.326-0.879,2.122-0.879
		h634.645V157.355h-40.406v414.657c0,1.657-1.343,3-3,3H208.812c-1.657,0-3-1.343-3-3V157.355H165.406z M768.781,528.605H535.203
		c-1.657,0-3-1.343-3-3c0-27.243,22.163-49.406,49.406-49.406h187.172c1.657,0,3,1.343,3,3v46.406
		C771.781,527.263,770.438,528.605,768.781,528.605z M538.306,522.605h227.476v-40.406H581.609
		C558.683,482.199,539.852,500.064,538.306,522.605z M488.797,528.605H255.219c-1.657,0-3-1.343-3-3v-46.406c0-1.657,1.343-3,3-3
		h187.172c27.243,0,49.406,22.163,49.406,49.406C491.797,527.263,490.454,528.605,488.797,528.605z M258.219,522.605h227.476
		c-1.545-22.541-20.377-40.406-43.304-40.406H258.219V522.605z M535.203,448.276c-0.517,0-1.034-0.134-1.498-0.4
		c-0.929-0.535-1.502-1.527-1.502-2.6v-12.483c0-27.243,22.163-49.406,49.406-49.406h187.172c1.657,0,3,1.343,3,3v46.406
		c0,1.657-1.343,3-3,3H581.609c-15.747,0-31.273,4.177-44.901,12.078C536.243,448.142,535.723,448.276,535.203,448.276z
		 M581.609,389.387c-23.935,0-43.406,19.472-43.406,43.406v7.436c13.414-6.841,28.315-10.436,43.406-10.436h184.172v-40.406H581.609
		z M488.797,448.276c-0.52,0-1.04-0.135-1.505-0.405c-13.627-7.901-29.154-12.078-44.901-12.078H255.219c-1.657,0-3-1.343-3-3
		v-46.406c0-1.657,1.343-3,3-3h187.172c27.243,0,49.406,22.163,49.406,49.406v12.483c0,1.072-0.573,2.064-1.502,2.6
		C489.831,448.143,489.314,448.276,488.797,448.276z M258.219,429.793h184.172c15.091,0,29.993,3.595,43.406,10.436v-7.436
		c0-23.935-19.472-43.406-43.406-43.406H258.219V429.793z M535.203,355.464c-0.517,0-1.034-0.133-1.498-0.4
		c-0.929-0.536-1.502-1.527-1.502-2.6V92.812c0-27.243,22.163-49.406,49.406-49.406h187.172c1.657,0,3,1.343,3,3V339.98
		c0,1.657-1.343,3-3,3H581.609c-15.747,0-31.273,4.177-44.901,12.079C536.243,355.329,535.723,355.464,535.203,355.464z
		 M581.609,49.406c-23.935,0-43.406,19.472-43.406,43.406v254.604c13.414-6.841,28.315-10.436,43.406-10.436h184.172V49.406H581.609
		z M488.797,355.464c-0.52,0-1.04-0.135-1.505-0.405c-13.627-7.902-29.154-12.079-44.901-12.079H255.219c-1.657,0-3-1.343-3-3
		V46.406c0-1.657,1.343-3,3-3h187.172c27.243,0,49.406,22.164,49.406,49.406v259.651c0,1.073-0.573,2.064-1.502,2.6
		C489.831,355.331,489.314,355.464,488.797,355.464z M258.219,336.98h184.172c15.091,0,29.992,3.595,43.406,10.436V92.812
		c0-23.934-19.472-43.406-43.406-43.406H258.219V336.98z"/>
</g>
</svg>
