<?xml version="1.0" encoding="utf-8"?>
<!-- Generator: Adobe Illustrator 16.0.0, SVG Export Plug-In . SVG Version: 6.00 Build 0)  -->
<!DOCTYPE svg PUBLIC "-//W3C//DTD SVG 1.1//EN" "http://www.w3.org/Graphics/SVG/1.1/DTD/svg11.dtd">
<svg version="1.1" id="Capa_1" xmlns="http://www.w3.org/2000/svg" xmlns:xlink="http://www.w3.org/1999/xlink" x="0px" y="0px"
	 width="285px" height="285px" viewBox="253.5 0 285 285" enable-background="new 253.5 0 285 285" xml:space="preserve">
<g>
	<path fill="#FFFFFF" d="M345.107,175.51v20.499c0,1.364,1.11,2.474,2.474,2.474h96.839c1.363,0,2.473-1.109,2.473-2.474V175.51
		c0-6.979,5.675-12.652,12.652-12.652h77.5L486.146,15.268H305.854L254.96,162.857h77.495
		C339.433,162.857,345.107,168.531,345.107,175.51z M324.75,40.714h142.5V71.25h-10.179V50.893H334.929V71.25H324.75V40.714z
		 M309.482,81.429h173.036v30.536h-10.179V91.607H319.661v20.357h-10.179V81.429z M304.393,152.679h-10.179v-30.536h203.572v30.536
		h-10.179v-20.357H304.393V152.679z"/>
	<path fill="#FFFFFF" d="M457.071,175.51v20.499c0,6.978-5.675,12.651-12.651,12.651h-96.839c-6.978,0-12.652-5.674-12.652-12.651
		V175.51c0-1.365-1.109-2.475-2.474-2.475H253.5v78.248c0,10.174,8.275,18.449,18.449,18.449h248.097
		c10.179,0,18.454-8.275,18.454-18.449v-78.248h-78.955C458.181,173.035,457.071,174.145,457.071,175.51z"/>
</g>
</svg>
