<?xml version="1.0" encoding="utf-8"?>
<!-- Generator: Adobe Illustrator 16.0.0, SVG Export Plug-In . SVG Version: 6.00 Build 0)  -->
<!DOCTYPE svg PUBLIC "-//W3C//DTD SVG 1.1//EN" "http://www.w3.org/Graphics/SVG/1.1/DTD/svg11.dtd">
<svg version="1.1" id="Capa_1" xmlns="http://www.w3.org/2000/svg" xmlns:xlink="http://www.w3.org/1999/xlink" x="0px" y="0px"
	 width="1024px" height="792px" viewBox="0 0 1024 792" enable-background="new 0 0 1024 792" xml:space="preserve">
<g>
	<g>
		<path fill="#FFFFFF" d="M720.828,335.123V101.384L512,0.45L303.172,101.384v233.74L116,427.937v259.272l210.418,104.339
			L512,698.756l185.582,92.791L908,687.207V427.936L720.828,335.123z M303.172,728.221L162.406,658.42V479.734l140.766,69.801
			V728.221z M326.332,509.224l-134.898-66.892l134.898-66.892l133.785,66.892L326.332,509.224z M488.797,658.474l-139.219,69.609
			V549.482l139.219-69.609V658.474z M488.797,404.786l-139.219-69.609V153.482l139.219,69.609V404.786z M378.964,116.292L512,51.994
			l133.036,64.3L512,182.81L378.964,116.292z M674.422,153.482v181.694l-139.219,69.609V223.092L674.422,153.482z M674.422,728.083
			l-139.219-69.609V479.873l139.219,69.609V728.083z M563.884,442.33l133.784-66.892l134.898,66.892l-134.898,66.892L563.884,442.33
			z M861.594,658.424l-140.766,69.8V549.537l140.766-69.802V658.424z"/>
	</g>
</g>
</svg>
