<svg enable-background="new 0 0 1024 792" height="792" viewBox="0 0 1024 792" width="1024" xmlns="http://www.w3.org/2000/svg"><g fill="#fff"><path d="m737.582 0h-502.253c-26.094 0-47.427 21.863-47.427 47.956v45.221h55.141c36.419 0 65.935 29.447 65.935 65.866 0 36.422-29.516 65.866-65.935 65.866h-55.141v106.029h55.141c36.419 0 65.935 29.445 65.935 65.867 0 36.419-29.516 65.864-65.935 65.864h-55.141v104.422h55.141c36.419 0 65.935 30.247 65.935 66.67 0 36.422-29.516 66.669-65.935 66.669h-55.141v44.301c0 26.095 21.333 47.27 47.425 47.27h502.253c26.09 0 47.935-21.175 47.935-47.27v-696.775c.002-26.093-21.844-47.956-47.933-47.956zm-51.13 617.564s-26.557 14.339-35.405 19.125c-44.707 24.186-136.053-58.006-204.044-183.629-67.976-125.634-86.816-247.068-42.101-271.281l35.378-19.151c10.473-5.681 23.558-1.79 29.21 8.692l56.076 103.624c5.665 10.471 1.775 23.556-8.695 29.211l-35.377 19.151 92.987 171.868 35.376-19.165c5.033-2.717 10.935-3.334 16.407-1.7 5.501 1.638 10.099 5.371 12.815 10.393l56.072 103.651c5.661 10.473 1.769 23.544-8.699 29.211z"/><path d="m159.498 198.522h83.547c21.852 0 39.565-17.708 39.565-39.564 0-21.855-17.712-39.563-39.565-39.563h-83.547c-21.856 0-39.565 17.708-39.565 39.563 0 21.856 17.708 39.564 39.565 39.564z"/><path d="m159.498 435.908h83.547c21.852 0 39.565-17.71 39.565-39.562 0-21.856-17.712-39.565-39.565-39.565h-83.547c-21.856 0-39.565 17.709-39.565 39.565 0 21.852 17.708 39.562 39.565 39.562z"/><path d="m282.607 633.727c0-21.855-17.711-39.562-39.564-39.562h-83.545c-21.856 0-39.565 17.708-39.565 39.562 0 21.856 17.708 39.565 39.565 39.565h83.547c21.851 0 39.562-17.709 39.562-39.565z"/><path d="m873.566 221.601h-48.628v121.991h48.628c16.846 0 30.501-13.654 30.501-30.498v-60.994c0-16.846-13.653-30.499-30.501-30.499z"/><path d="m873.566 400.465h-48.628v121.988h48.628c16.846 0 30.501-13.651 30.501-30.497v-60.994c0-16.846-13.653-30.497-30.501-30.497z"/><path d="m873.566 579.328h-48.628v121.99h48.628c16.846 0 30.501-13.653 30.501-30.499v-60.992c0-16.848-13.653-30.499-30.501-30.499z"/></g></svg>