<?xml version="1.0" encoding="iso-8859-1"?>
<!-- Generator: Adobe Illustrator 19.0.0, SVG Export Plug-In . SVG Version: 6.00 Build 0)  -->
<svg xmlns="http://www.w3.org/2000/svg" xmlns:xlink="http://www.w3.org/1999/xlink" version="1.1" id="Capa_1" x="0px" y="0px" viewBox="0 0 512 512" style="enable-background:new 0 0 512 512;" xml:space="preserve" width="512px" height="512px">
<g>
	<g>
		<path d="M486.4,238.934h-8.533V228.9c-0.079-14.342-7.674-27.591-20.008-34.908l-49.808-29.517v-10.708    c6.321-8.437,10.801-18.106,13.15-28.383c0.341-1.752,1.197-3.363,2.458-4.625c4.914-4.816,7.677-11.411,7.662-18.292V86.134    c-0.006-4.03-0.956-8.003-2.775-11.6l-0.95-1.875c-0.608-1.201-0.926-2.528-0.929-3.875V45.292    C426.506,20.158,406.03-0.103,380.896,0h-27.925c-25.134-0.103-45.61,20.158-45.771,45.292v23.492    c-0.003,1.34-0.316,2.661-0.917,3.858l-0.975,1.908c-1.811,3.593-2.757,7.56-2.763,11.583v16.333    c-0.014,6.885,2.754,13.484,7.675,18.3c1.255,1.262,2.106,2.869,2.446,4.617c2.346,10.281,6.826,19.953,13.15,28.392v10.692    L276,194c-12.331,7.316-19.922,20.562-20,34.9v10.033h-23.083c-5.734-14.338-10.267-29.128-13.551-44.217    c-1.374-6.504-2.052-13.136-2.021-19.783c0.061-19.192-7.515-37.619-21.058-51.217c-13.413-13.634-31.737-21.314-50.863-21.317    c-19.126-0.003-37.453,7.67-50.87,21.3c-13.558,13.597-21.144,32.033-21.083,51.234c0.029,6.645-0.648,13.274-2.021,19.775    c-3.33,15.302-7.946,30.295-13.797,44.82c-0.94-0.374-1.94-0.576-2.952-0.595H8.534c-2.263-0.001-4.434,0.898-6.035,2.499    c-1.6,1.6-2.499,3.771-2.499,6.035v102.4c0.016,1.262,0.317,2.503,0.88,3.632c-0.559,1.672-0.855,3.421-0.88,5.184v144.783    c-0.001,2.263,0.898,4.434,2.499,6.035c1.6,1.6,3.771,2.499,6.035,2.499H281.6c2.263,0.001,4.434-0.898,6.035-2.499    c1.6-1.6,2.499-3.771,2.499-6.035V435.2h76.8v59.733c0.011,9.421,7.646,17.056,17.067,17.067h34.133    c9.421-0.011,17.056-7.645,17.067-17.067V435.2h51.2c14.132-0.015,25.585-11.468,25.6-25.6V264.534    C511.985,250.402,500.532,238.949,486.4,238.934z M273.067,228.9c0-8.334,4.435-16.039,11.642-20.225l51.6-30.583    c4.091-2.312,6.608-6.659,6.575-11.358v-14.292c-0.008-2.777-0.898-5.479-2.542-7.717c-5.237-6.722-8.973-14.488-10.958-22.775    c-1.02-5.061-3.52-9.704-7.183-13.342c-1.656-1.614-2.589-3.829-2.588-6.142V86.134c0.002-1.343,0.315-2.666,0.917-3.867    l0.975-1.908c1.81-3.591,2.756-7.554,2.762-11.575V45.292c0.149-15.713,12.991-28.34,28.704-28.225h27.925    c15.714-0.115,28.555,12.512,28.704,28.225v23.492c0.007,4.028,0.957,7.998,2.775,11.592l0.95,1.875    c0.609,1.204,0.927,2.534,0.929,3.883v16.333c0,2.315-0.934,4.533-2.592,6.15c-3.663,3.633-6.162,8.275-7.179,13.333    c-1.995,8.313-5.749,16.102-11.008,22.842c-1.616,2.224-2.488,4.901-2.492,7.65v14.292c-0.044,4.655,2.427,8.972,6.462,11.292    l51.704,30.642c7.211,4.187,11.648,11.895,11.65,20.233v10.033H273.067V228.9z M56.579,277.784    c15.273-24.338,25.966-51.264,31.55-79.45c1.628-7.693,2.436-15.537,2.408-23.4c-0.046-14.705,5.766-28.822,16.15-39.233    c10.213-10.387,24.17-16.236,38.737-16.233c14.567,0.003,28.522,5.858,38.73,16.25c10.37,10.412,16.171,24.521,16.125,39.216    c-0.03,7.866,0.779,15.713,2.413,23.408c3.856,17.868,9.423,35.324,16.622,52.125c0.089,0.235,0.192,0.447,0.3,0.671    c4.027,9.34,8.933,18.276,14.652,26.687c0.213,0.27,0.218,0.649,0.012,0.925c-0.28,0.563-0.864,0.908-1.492,0.883h-48.383    c-6.024,0.024-11.3,4.045-12.922,9.846c-1.622,5.802,0.805,11.975,5.943,15.12c18.146,10.992,48.487,27.417,49.358,27.875    c3.559,2.216,6.533,5.254,8.673,8.858H55.33c2.032-3.497,4.878-6.453,8.295-8.617c1.279-0.7,31.621-17.125,49.8-28.142    c5.122-3.155,7.531-9.325,5.903-15.116s-6.899-9.802-12.916-9.825H58.025c-0.626,0.024-1.209-0.322-1.487-0.883    C56.325,278.458,56.342,278.057,56.579,277.784z M17.067,256h32.829c-2.198,4.127-4.63,8.125-7.283,11.975    c-3.873,5.485-4.349,12.677-1.233,18.625c3.216,6.222,9.642,10.121,16.646,10.1h35.151c-17.167,9.9-37.5,20.917-38.083,21.242    c-8.723,5.362-15.253,13.654-18.419,23.392H17.346c-0.096,0-0.184,0.026-0.279,0.028V256z M273.067,494.934H17.084L17.346,358.4    l255.721,0.283V494.934z M384,494.934V435.2h34.133l0.012,59.733H384z M494.934,409.6c-0.005,4.711-3.822,8.529-8.533,8.533    H290.134v-25.6h204.8V409.6z M494.934,375.467h-204.8v-16.783c-0.01-9.576-7.77-17.337-17.346-17.35H254.14    c-3.256-9.87-9.932-18.251-18.823-23.633c-0.254-0.133-20.533-11.117-37.675-21h35.146c7.004,0.023,13.432-3.877,16.646-10.1    c3.112-5.93,2.651-13.101-1.196-18.583c-2.664-3.863-5.105-7.875-7.312-12.017h23.607H486.4c4.711,0.005,8.529,3.822,8.533,8.533    V375.467z" fill="#a4a4a4"/>
	</g>
</g>
<g>
</g>
<g>
</g>
<g>
</g>
<g>
</g>
<g>
</g>
<g>
</g>
<g>
</g>
<g>
</g>
<g>
</g>
<g>
</g>
<g>
</g>
<g>
</g>
<g>
</g>
<g>
</g>
<g>
</g>
</svg>
