<?xml version="1.0" encoding="utf-8"?>
<!-- Generator: Adobe Illustrator 16.0.0, SVG Export Plug-In . SVG Version: 6.00 Build 0)  -->
<!DOCTYPE svg PUBLIC "-//W3C//DTD SVG 1.1//EN" "http://www.w3.org/Graphics/SVG/1.1/DTD/svg11.dtd">
<svg version="1.1" id="Capa_1" xmlns="http://www.w3.org/2000/svg" xmlns:xlink="http://www.w3.org/1999/xlink" x="0px" y="0px"
	 width="1024px" height="792px" viewBox="0 0 1024 792" enable-background="new 0 0 1024 792" xml:space="preserve">
<g>
	<g>
		<path fill="#A0A0A0" d="M745.228,677.516H619.732c4.095-7.88,6.425-16.819,6.425-26.297c0-31.558-25.675-57.233-57.233-57.233
			H463.331c-14.853,0-28.891-6.485-38.518-17.795l-47.857-56.222c-38.618-45.366-94.937-71.387-154.515-71.387H109.478
			c-8.542,0-15.469,6.926-15.469,15.469v200.553c0,5.382,2.797,10.375,7.382,13.188l128.838,78.999
			c37.544,23.022,80.669,35.191,124.711,35.191L745.228,792c0.004,0,0.004,0,0.005,0c15.286,0,29.66-5.954,40.467-16.762
			c10.811-10.81,16.765-25.184,16.765-40.489C802.461,703.189,776.787,677.516,745.228,677.516z M763.823,753.363
			c-4.968,4.968-11.569,7.702-18.594,7.702c-0.002,0-0.002,0-0.002,0l-390.289-0.02c-38.329-0.002-75.862-10.594-108.537-30.629
			l-121.456-74.473V479.52h97.492c50.496,0,98.228,22.053,130.96,60.503l47.857,56.222c15.514,18.227,38.139,28.678,62.074,28.678
			h105.594c14.5,0,26.297,11.797,26.297,26.297s-11.797,26.297-26.297,26.297H401.796c-10.944,0-21.579-3.154-30.755-9.12
			l-58.778-38.229c-3.556-4.339-9.348-6.584-15.218-5.328c-8.352,1.792-13.673,10.015-11.882,18.368l0.217,1.007
			c0.857,3.999,3.261,7.494,6.69,9.726l62.103,40.392c14.208,9.241,30.673,14.125,47.621,14.125h343.432
			c14.501,0,26.297,11.796,26.297,26.316C771.524,741.793,768.79,748.396,763.823,753.363z"/>
	</g>
</g>
<g>
	<g>
		<path fill="#A0A0A0" d="M690.422,140.098c-2.875-2.877-6.851-4.532-10.935-4.532c-4.068,0-8.06,1.655-10.937,4.532
			s-4.532,6.868-4.532,10.937s1.653,8.059,4.532,10.937c2.893,2.877,6.868,4.532,10.937,4.532c4.084,0,8.06-1.655,10.935-4.532
			c2.893-2.877,4.548-6.868,4.548-10.937S693.314,142.975,690.422,140.098z"/>
	</g>
</g>
<g>
	<g>
		<path fill="#A0A0A0" d="M878.609,114.21l-128.838-79c-37.543-23.022-80.667-35.19-124.71-35.191L234.773,0c0,0,0,0-0.001,0
			c-15.288,0-29.66,5.954-40.469,16.762c-10.811,10.812-16.765,25.184-16.765,40.49c0,31.558,25.677,57.233,57.233,57.233h125.495
			c-4.095,7.88-6.424,16.819-6.424,26.297c0,31.558,25.675,57.233,57.233,57.233h105.594c14.853,0,28.893,6.486,38.517,17.795
			l47.857,56.221c38.618,45.367,94.937,71.387,154.517,71.387h112.96c8.542,0,15.469-6.926,15.469-15.469V127.398
			C885.991,122.018,883.195,117.023,878.609,114.21z M855.053,312.481h-97.491c-50.497,0-98.229-22.054-130.961-60.503
			l-47.856-56.221c-15.514-18.227-38.139-28.679-62.075-28.679H411.076c-14.5,0-26.297-11.796-26.297-26.297
			s11.796-26.297,26.297-26.297h167.129c10.946,0,21.579,3.154,30.754,9.122l16.867,10.972c7.162,4.66,16.743,2.628,21.4-4.534
			c4.66-7.162,2.629-16.743-4.533-21.401l-16.867-10.971c-14.207-9.241-30.672-14.125-47.621-14.125H234.772
			c-14.5,0-26.297-11.796-26.297-26.317c0-7.024,2.736-13.628,7.702-18.595c4.965-4.965,11.572-7.699,18.595-7.699l390.289,0.019
			c38.33,0.001,75.863,10.595,108.538,30.63l121.456,74.475v176.421H855.053z"/>
	</g>
</g>
<g>
	<g>
		<path fill="#A0A0A0" d="M540.768,277.527c-18.329,0-36.174,6.183-50.767,17.308c-14.595-11.126-32.439-17.308-50.768-17.308
			c-47.063,0-85.355,39.547-85.355,88.162c0,32.895,22.184,67.933,65.933,104.139c30.948,25.611,61.479,42.417,62.765,43.119
			c2.312,1.266,4.867,1.899,7.425,1.899c2.557,0,5.112-0.633,7.425-1.899c1.285-0.702,31.816-17.509,62.765-43.119
			c43.749-36.206,65.933-71.245,65.933-104.139C626.121,317.077,587.832,277.527,540.768,277.527z M489.993,481.572
			c-35.093-20.724-105.177-71.318-105.177-115.883c0-31.553,24.412-57.224,54.417-57.224c14.986,0,28.955,6.279,39.327,17.681
			c2.931,3.223,7.084,5.061,11.44,5.061c4.355,0,8.511-1.838,11.44-5.061c10.373-11.401,24.34-17.681,39.326-17.681
			c30.007,0,54.418,25.671,54.418,57.224C595.186,410.161,525.078,460.816,489.993,481.572z"/>
	</g>
</g>
<g>
	<g>
		<path fill="#A0A0A0" d="M558.054,330.396c-0.289-0.32-0.58-0.638-0.875-0.95c-5.869-6.209-15.659-6.484-21.868-0.615
			c-6.209,5.868-6.484,15.659-0.616,21.868l0.356,0.385c3.055,3.397,7.271,5.125,11.506,5.125c3.686,0,7.383-1.309,10.339-3.966
			C563.247,346.528,563.767,336.748,558.054,330.396z"/>
	</g>
</g>
<g>
	<g>
		<path fill="#A0A0A0" d="M558.506,375.596c-7.435-4.201-16.873-1.584-21.078,5.855c-11.743,20.772-43.586,41.398-54.864,47.594
			c-7.487,4.104-10.232,13.498-6.135,20.99c2.812,5.134,8.113,8.043,13.585,8.043c2.509,0,5.055-0.612,7.41-1.9
			c1.968-1.077,48.424-26.757,66.936-59.504C568.563,389.236,565.941,379.801,558.506,375.596z"/>
	</g>
</g>
</svg>
